<svg width="144" height="144" viewBox="0 0 144 144" fill="none" xmlns="http://www.w3.org/2000/svg">
<circle cx="72" cy="72" r="72" fill="white"/>
<path d="M65.5326 79.5933C65.5326 78.9647 65.0223 78.4543 64.3937 78.4543C63.7651 78.4543 63.2547 78.9647 63.2547 79.5933C63.2547 80.2219 63.7651 80.7322 64.3937 80.7322C65.0223 80.7322 65.5326 80.2219 65.5326 79.5933Z" fill="#0D2E24"/>
<path d="M59.8784 72.1996C58.8297 72.5668 59.172 74.5646 60.5785 74.6455C62.7817 74.7762 62.3087 71.3469 59.8784 72.1996Z" fill="#0D2E24"/>
<path d="M54.3331 74.8291C55.0426 75.9618 57.4076 74.1476 55.6121 72.9153C54.5012 72.1529 53.885 74.1165 54.3331 74.8291Z" fill="#0D2E24"/>
<path d="M47.8013 38.7348C47.6862 38.5979 46.7931 37.9195 46.6531 38.0253C46.4321 38.5232 45.7382 39.0056 45.6635 39.5221C45.2776 42.2045 49.8738 41.187 47.8013 38.7348Z" fill="#0D2E24"/>
<path d="M55.1422 69.2153C56.1349 69.8594 56.5301 69.1344 57.0031 68.3377H56.0197L56.7572 67.9643C55.6619 65.8203 53.4929 68.1448 55.1422 69.2153Z" fill="#0D2E24"/>
<path d="M60.5786 59.6153C63.2485 59.7366 61.4437 56.1705 60.0247 57.4308C59.5237 57.8758 59.3587 59.5593 60.5786 59.6153Z" fill="#0D2E24"/>
<path d="M40.5477 45.5964C41.3417 45.5964 41.9853 44.9528 41.9853 44.1588C41.9853 43.3648 41.3417 42.7211 40.5477 42.7211C39.7537 42.7211 39.11 43.3648 39.11 44.1588C39.11 44.9528 39.7537 45.5964 40.5477 45.5964Z" fill="#0D2E24"/>
<path d="M49.9765 69.458C50.6588 69.458 51.2119 68.9049 51.2119 68.2226C51.2119 67.5403 50.6588 66.9872 49.9765 66.9872C49.2942 66.9872 48.7411 67.5403 48.7411 68.2226C48.7411 68.9049 49.2942 69.458 49.9765 69.458Z" fill="#0D2E24"/>
<path d="M37.2304 67.2922C36.356 66.3898 35.0023 68.1915 36.328 69.3025C37.8155 70.5503 37.8372 67.9177 37.2304 67.2922Z" fill="#0D2E24"/>
<path d="M87.0883 86.903C88.5291 87.4942 90.3495 88.0575 91.1244 88.294C90.5456 88.101 89.2697 87.6592 87.0883 86.903Z" fill="#0D2E24"/>
<path d="M121.312 69.4487C117.749 68.3098 113.732 66.8939 110.965 70.3076C109.845 71.6892 110.617 71.8853 108.554 72.5761C105.386 73.6341 102.924 74.0604 99.5139 73.631C97.3294 73.3572 97.2111 73.2545 97.2018 73.1767C97.1645 72.8935 98.2132 72.6912 99.7566 71.9942C102.486 70.7588 102.436 69.9279 104.384 69.3865C105.896 68.9664 106.195 69.3491 107.76 68.8201C111.958 67.4042 112.294 63.8163 113.187 60.0821C112.35 59.9731 110.191 59.8144 107.891 60.9969C106.861 61.526 104.726 62.6244 104.123 64.6938C103.805 65.7798 103.936 66.62 103.295 68.0359C103.096 68.4716 102.775 68.9259 102.215 69.4394C99.6384 71.8012 95.3721 72.8499 91.9988 73.3883C94.1989 71.6954 96.1127 69.6852 97.7682 67.4571C99.0938 65.6709 103.332 58.0656 104.988 57.6735C105.868 57.465 107.085 57.5366 108.071 57.3063C111.575 56.4879 113.663 52.9902 113.436 49.4894C112.609 49.3804 111.267 49.3058 109.702 49.7103C108.825 49.9375 107.427 50.2984 106.307 51.3533C104.35 53.1987 105.402 54.4496 103.793 57.2161C103.236 58.1714 101.583 59.8331 100.768 60.8507C100.665 60.9814 100.531 61.7282 100.133 61.3143C100.099 61.277 100.503 60.6297 100.563 60.3901C100.874 59.08 101.185 55.8873 101.745 54.9195C102.013 54.459 103.292 53.8086 103.743 53.3449C106.509 50.4851 106.092 46.3806 105.059 42.8394C103.086 43.636 100.581 46.0134 99.766 48.0143C98.182 51.901 100.301 53.292 100.13 56.7586C99.4423 70.5721 87.9067 71.3936 80.289 79.5404C79.6261 80.2499 78.842 81.3733 78.2507 82.1823C76.7259 84.2642 75.5341 86.5825 74.0186 88.6674C73.9035 87.6156 73.807 86.0223 74.0186 84.1117C74.6036 78.8216 77.1149 74.9847 79.8782 70.8615C83.0212 66.1719 83.2608 67.258 85.1092 63.9096C86.6994 61.0281 87.6485 58.4546 89.7241 57.9193C91.5881 57.4401 93.2498 59.1174 93.7259 55.4019C92.755 55.4703 91.3018 55.1902 90.446 55.6913C89.9357 55.9931 89.1359 57.7575 88.1806 58.1091C87.9099 56.7804 87.7823 54.9537 88.7283 53.3854C89.4782 52.1406 90.5176 51.7019 91.2178 51.1791C92.7114 50.0619 94.0931 47.5009 93.4801 41.1123C89.9077 42.4348 85.9743 45.083 86.3384 49.3618C86.4473 50.6532 87.1537 52.0628 87.2937 53.3325C87.7263 57.2005 85.9618 60.7262 83.6249 63.6576C83.1705 64.0092 83.4257 63.1783 83.4506 62.9916C83.5502 62.2448 83.5159 61.0032 83.6653 60.4959C83.768 60.1505 84.6922 59.69 85.0532 58.9338C85.9432 57.0698 85.6382 55.4361 84.1196 54.0389C83.5346 53.5005 81.7858 52.2558 81.1509 52.791C79.2745 54.3749 78.8669 58.1589 80.6624 59.9576C81.5399 60.8382 82.2214 60.7511 82.4922 61.1214C82.9714 61.7811 82.3801 63.2779 82.265 63.53C80.5099 67.4509 76.8628 71.6768 74.501 76.2698C74.1431 76.9638 73.8879 77.5301 73.7603 77.8164C73.418 78.5135 72.9855 79.279 72.7365 79.2105C72.1702 79.0549 73.7946 74.8975 73.5269 69.8003C73.1878 63.3433 71.3175 60.4804 72.0893 57.0511C72.2635 56.2825 73.0539 55.8406 73.7603 55.6415C73.611 54.932 72.7957 55.7908 72.5343 55.8904C72.3071 55.5855 73.5892 53.1053 73.9906 52.791C74.697 52.2371 75.1326 52.5763 75.7986 52.3834C79.8253 51.2227 80.5628 47.8463 80.6593 44.0654C76.729 44.9585 72.2355 47.2022 73.4772 52.0255L71.5447 54.6612V50.1024C71.5447 49.4022 72.5498 46.3308 72.9046 45.5498C73.1597 44.9865 74.6908 42.4597 75.0642 42.1672C75.4065 41.8996 76.0818 41.4141 80.597 40.6735C83.5346 40.1912 84.63 40.1663 85.993 39.267C86.8705 38.6882 87.4555 38.0098 87.8103 37.5368C89.0301 36.1053 89.3382 34.0204 89.7801 32.2373C88.9554 32.0973 87.1381 31.9075 85.131 32.7508C84.4744 33.0277 81.9134 34.1044 81.0825 36.4756C80.513 38.1 81.1821 38.7877 80.4415 39.7773C80.1396 40.1787 77.4728 40.8042 76.8379 40.8602C75.8204 40.9536 77.5257 40.1725 77.7124 40.0045C80.3699 37.6239 81.5119 34.2942 81.1541 30.7592C78.6895 31.615 76.5392 33.4603 75.615 35.9342C74.9584 37.6893 75.0829 39.5377 74.4387 41.1652C74.0528 42.1392 73.0788 43.0261 72.7739 44.0592C72.1297 44.025 72.7677 43.1163 72.777 42.9514C72.8672 41.4453 72.777 39.796 72.777 38.2712C72.777 37.0171 73.3558 37.1883 73.9657 36.2578C76.3587 32.6107 76.0662 28.5809 73.1473 25.3322C72.5156 24.632 71.8061 23.518 71.0499 24.2275C67.8758 27.2086 67.4557 32.4396 69.8581 36.012C70.328 36.7121 71.2958 37.2443 71.4918 38.0751C72.1328 40.8011 71.5447 43.5582 71.2957 46.2779C67.8323 41.8187 69.3322 35.2029 64.8947 31.3691L62.1843 29.5238C62.3585 30.6098 62.6199 31.7923 63.0151 33.0433C64.2194 36.8553 66.1457 39.6995 67.7234 41.5977C67.0263 41.1216 64.4248 40.5646 64.0358 40.1103C63.5535 39.5501 63.6873 37.1696 63.2361 35.9809C61.954 32.5983 58.4252 32.1346 55.2822 31.4936C55.248 34.4001 57.0435 38.8593 59.6575 40.297C62.8067 42.0303 67.3655 40.3686 69.1237 44.6287C71.0095 49.1937 69.6247 54.4776 69.5438 59.2139C69.5344 59.8144 69.7398 60.2532 69.8145 60.8133C69.4504 61.2521 66.1394 56.3914 65.9838 55.8935C65.6042 54.6799 66.5253 53.8366 66.7929 52.7381C67.2566 50.8368 66.3137 48.4407 64.7702 47.0092C63.373 45.7147 61.0391 44.9647 61.036 44.9647C61.036 44.9647 60.3981 46.7821 60.2207 47.3982C59.5268 49.8192 60.3359 53.3076 62.4892 54.9537C63.3481 55.6103 63.5037 55.1529 64.5648 55.9558C64.8231 56.1518 67.9536 60.6453 68.2897 61.221C69.0926 62.5933 70.0572 65.033 70.0572 66.5982V76.0831L68.5449 72.545C66.5782 68.3471 61.9229 66.6511 58.9635 63.1534C57.0529 60.8942 55.1858 56.5875 54.6474 53.6748C54.5385 53.0866 54.5541 52.5856 54.6505 52.1438C55.22 49.5703 56.7603 49.0786 57.1867 47.3173C57.9802 44.0499 53.3062 39.7182 53.3062 39.7151C53.3062 39.7151 50.3749 43.6515 50.2971 46.418C50.2566 47.809 50.9599 48.9977 52.3633 51.3782C52.9764 52.4207 53.0541 52.2184 53.4929 53.0991C54.6101 55.3303 54.5354 56.5159 55.7615 59.9482C56.3247 61.5322 56.8879 62.7676 57.2427 63.5144C55.0613 63.4491 50.1352 60.3777 49.9205 58.1869C49.8707 57.6828 50.2753 57.0262 50.3157 56.4692C50.3873 55.489 50.4029 54.7204 50.2162 53.9393C50.2162 53.9393 50.0388 53.2236 49.6529 52.5047C48.822 50.9519 45.8907 47.2737 44.2414 47.9521C42.7291 48.5745 42.7664 52.6572 43.896 55.296C44.1356 55.8531 44.4904 56.5346 45.1563 57.2472C46.2983 58.4763 48.1312 58.4328 48.9994 59.0707C49.7058 59.5873 50.8074 61.361 51.8405 62.1421C53.9068 63.7073 56.8973 64.5102 59.1907 65.8794C62.7257 67.9861 65.5451 70.7619 67.3126 74.5148C69.6247 79.4252 69.3944 84.6282 69.5562 89.8841L67.0885 86.0721C59.4272 78.1587 48.598 78.0498 42.6606 67.8741C41.0113 65.0486 39.4398 58.9649 39.5425 55.7504C39.5581 55.2369 39.9222 54.7857 39.9751 54.2629C40.5477 48.5776 35.6216 46.8536 30.8761 47.1399C31.8594 52.8657 33.602 54.6924 35.1051 55.2338C35.9048 55.5232 37.2927 55.6788 38.2418 56.8831C38.7615 57.5397 38.9108 58.2118 39.1536 59.3445C39.3621 60.3217 39.5737 61.7469 39.5052 63.5238C38.7801 63.4428 37.859 63.197 37.3425 62.4813C37.1962 62.279 37.1371 61.2117 36.9722 60.7573C35.6527 57.0947 31.2557 57.8602 28.4208 59.2076C29.7091 61.2552 31.2433 63.6669 33.9599 63.7851C35.9079 63.8692 36.4338 62.5529 38.3974 64.0185C39.9906 65.2073 42.6668 71.2256 44.5775 73.3603C45.2621 74.1227 46.2237 74.2471 46.4041 75.1029C44.9011 73.9982 43.2332 74.5521 41.6057 74.3592C40.361 74.2129 35.0242 72.8406 34.4578 71.8977C33.8354 70.8552 34.3707 69.9248 32.7307 68.6987C29.2361 66.0879 26.339 68.3378 23 69.6883C24.2478 72.3925 27.8171 75.0718 30.9508 74.5521C31.9279 74.3903 33.2877 73.2482 33.7141 73.2296C35.1113 73.1705 38.8455 75.6817 40.7406 75.106L37.7812 76.4534C37.3394 76.7553 36.857 77.0602 36.3436 77.3621C35.9079 77.6173 35.4847 77.8475 35.0739 78.0591C30.8449 77.5581 28.2123 80.7291 27.1916 84.4664C33.0948 84.4229 35.0833 83.035 35.7274 81.6658C36.2596 80.5362 35.7336 79.7333 36.6019 78.3579C37.9773 76.1796 40.8557 75.6879 41.3785 75.6226C45.6013 75.0905 47.3128 77.0291 51.0283 78.4948C52.1984 78.9554 53.7014 79.1732 54.7874 79.6649C55.0955 79.8018 55.2106 80.1005 54.6661 80.0352C53.4649 79.892 52.2171 79.447 50.9785 79.5373C50.5429 79.5684 50.7763 79.5808 46.5193 80.5051C45.8565 80.6482 45.5639 80.7104 45.1719 80.7758C43.3981 81.0776 42.838 80.9532 42.0911 81.0839C39.1847 81.5942 37.6474 85.2568 37.4607 85.6987C37.0095 86.7723 36.7606 87.3667 37.05 87.7836C37.9182 89.0408 43.283 88.2162 44.73 85.3813C45.3804 84.1023 45.2341 82.6989 46.5006 81.5071C46.8118 81.2146 47.2288 80.9843 47.8231 80.8349C52.7305 79.6182 59.0102 82.2103 62.6697 85.4529C61.5868 84.9394 60.23 85.4715 59.3743 85.3844C58.9729 85.344 58.5372 84.8959 58.0486 84.7807C53.4618 83.7009 50.0668 88.2629 49.3666 92.3518C52.7554 93.3352 54.5821 92.7346 55.6059 92.0624C58.0362 90.4692 57.781 87.2795 60.09 86.458C61.842 85.8356 63.7838 86.9964 64.1541 87.3013C69.5811 91.7824 68.5947 102.198 66.8676 108.25C66.3013 110.239 66.0741 112.218 64.5399 113.808C62.7382 115.678 60.4448 116.045 57.1836 116.487C44.1605 118.249 33.1664 118.824 32.2079 118.877C31.7536 118.902 30.4622 118.974 30.4622 118.986C30.4622 118.986 30.5182 118.986 30.5431 118.986C31.181 118.974 31.819 118.989 32.4569 118.986C33.6736 118.974 61.7362 118.986 71.9306 118.986C104.779 118.995 106.22 118.958 110.119 118.986C110.754 118.992 113.698 119.014 113.701 118.986C113.701 118.958 111.025 118.899 110.1 118.877C97.6157 118.575 90.362 117.452 85.716 116.497C81.6924 115.672 80.1801 115.118 78.8357 113.848C76.8068 111.938 75.976 109.022 75.31 104.973C74.1649 98.0185 73.7572 85.5089 83.6995 85.6925C85.6289 90.7181 89.4969 91.6361 94.2113 89.3956C92.4967 86.3522 90.53 84.1023 86.7087 84.2206C85.6507 84.2548 84.6082 84.8118 83.7307 84.9519C82.0876 85.2102 80.2112 84.9083 78.6957 85.9508C78.7735 85.7734 78.898 85.5151 79.066 85.2133C80.4975 82.6771 82.8936 81.588 83.8116 81.0963C85.9587 79.9449 88.0499 79.9698 89.1546 79.9823C92.142 80.0196 94.1927 81.1056 95.7735 81.9458C97.1302 82.6678 97.9051 83.3213 98.375 84.2393C98.7453 84.9674 98.6675 85.4778 98.848 85.873C100.149 88.7079 103.59 88.7701 106.288 88.6581C105.759 86.5514 105.037 84.5971 103.416 83.5391C102.756 83.1097 101.577 82.8949 100.992 82.7487C99.6882 82.4188 98.9756 82.3846 98.263 82.2539C96.3398 81.896 95.8886 81.0932 94.0122 80.2312C93.6325 80.057 89.8734 78.389 85.5915 79.4004C84.3095 79.7053 83.3043 80.1721 82.6384 80.5331C82.3646 80.2312 84.1881 78.8091 84.4899 78.5695C89.6992 74.437 99.8064 72.6072 105.308 76.9544C106.908 78.2179 106.469 78.7904 107.082 80.3557C108.765 84.6407 113.19 84.8523 117.13 83.981C116.019 81.6938 116.119 78.6193 113.763 77.1256C111.768 75.8591 109.036 76.1952 106.967 77.0509L102.84 74.6237C104.838 75.1589 108.784 73.2389 110.346 73.3945C110.801 73.4381 111.283 74.0013 111.784 74.1787C114.995 75.3238 117.388 74.4525 119.588 72.0284C119.84 71.7483 121.459 69.6323 121.319 69.4518L121.312 69.4487ZM106.933 62.7925C109.039 61.0343 111.392 61.0498 111.952 61.0685C111.267 65.2259 109.186 68.1666 106.842 68.4062C106.388 68.4529 105.784 68.4125 105.047 68.0857C105.056 67.6003 108.554 64.2021 109.117 63.5331C109.192 63.4428 109.55 63.0103 109.515 62.9761C109.447 62.9107 107.997 64.4822 105.84 66.2279C105.221 66.7289 104.698 67.1179 104.347 67.3731C104.434 66.813 104.848 64.5289 106.929 62.7925H106.933ZM106.422 53.2018C108.009 51.1324 109.979 50.7994 112.44 50.4758C111.796 53.9393 108.725 56.3665 105.296 56.631L107.511 54.2909C106.568 54.1913 105.893 55.6632 105.171 56.1394C104.953 55.3987 105.924 53.8459 106.422 53.2018ZM103.198 45.2977C103.382 45.0954 104.322 44.0436 104.555 44.3175C104.795 45.1421 105.106 46.6514 104.751 48.4718C104.175 51.4218 102.234 53.1551 101.599 53.6779C102.01 51.7081 102.423 49.7383 102.834 47.7685C102.277 49.7321 101.474 51.6459 101.232 53.6779C99.6042 50.703 101.145 47.5631 103.198 45.2977ZM91.5009 56.0242C91.921 55.8842 92.895 55.5077 93.2187 56.018L90.5145 56.88C90.3402 56.3012 91.1244 56.1487 91.5009 56.0242ZM87.9192 46.6234C89.0955 43.8134 91.9677 43.1412 92.2384 43.0821C93.0506 46.3153 92.4749 48.0081 91.7561 48.9635C90.9159 50.0775 88.8776 51.5121 88.8776 51.5121C88.8776 51.5121 89.7552 49.4147 90.6856 47.2146C91.4605 45.3817 91.6752 44.8932 91.641 44.8776C91.5818 44.8496 90.8319 46.3464 89.4533 48.8701C88.8559 49.9624 88.358 50.8492 88.025 51.4374C87.8632 51.0857 86.939 48.9728 87.9192 46.6234ZM81.5213 53.681C81.7111 54.5772 81.8853 55.5325 82.0347 56.5439C82.1934 57.6144 82.3023 58.6319 82.3801 59.5935C80.3388 58.5168 80.1987 55.3365 81.5213 53.681ZM82.1405 55.1591C82.0596 54.6675 81.9756 54.1727 81.8947 53.681C84.2379 55.0751 85.1092 57.9287 82.8811 59.8393C82.6353 58.2803 82.3895 56.7182 82.1405 55.1591ZM79.427 45.7956C78.7704 48.4002 78.1667 51.148 74.9926 51.4592C74.865 49.6356 78.1138 48.1793 78.6864 46.9003C78.733 46.7914 78.7486 46.4958 78.565 46.5362L74.3734 50.7216C74.5165 48.117 77.0682 46.362 79.4239 45.7987L79.427 45.7956ZM84.0481 34.8326C85.828 33.258 87.9348 33.3576 88.3362 33.3856C88.3144 33.6439 87.9223 37.5057 84.8914 38.8967C83.9236 39.3417 82.9869 39.3946 82.3148 39.3541C82.9496 38.3676 83.8427 37.182 85.0781 35.9995C85.9463 35.1687 86.7989 34.5152 87.5582 34.008C86.6838 34.4996 85.6756 35.15 84.6269 36.0058C83.6124 36.8335 82.7909 37.6644 82.1436 38.4019C82.209 37.9289 82.5139 36.1956 84.0512 34.8326H84.0481ZM76.9095 35.7475C77.9395 33.6594 79.6355 32.6823 80.2392 32.3742C80.2703 33.1709 80.2236 34.8855 79.2621 36.7308C78.4219 38.3428 77.2767 39.3012 76.6419 39.7617C77.3296 38.2401 78.0173 36.7184 78.7082 35.1967C78.2849 35.9809 77.8462 36.7744 77.3918 37.5741C76.9842 38.2961 76.5765 39.0056 76.1658 39.6995C76.1098 38.9993 76.0755 37.4403 76.9126 35.7475H76.9095ZM71.5385 36.4321C68.9681 33.5847 68.9619 28.6307 71.4233 25.5967C71.5571 25.4317 71.6132 25.3695 71.6598 25.3695C71.7843 25.3757 71.887 25.5375 71.915 25.5873C72.2137 26.0883 72.9606 26.6111 73.4709 27.4389C75.6274 30.9428 74.1431 34.1355 74.1431 34.1355C73.9066 34.6459 73.3869 35.5701 72.276 36.4321C72.1297 33.4696 71.9835 30.5103 71.8372 27.5478C71.7376 30.5103 71.6381 33.4696 71.5385 36.4321ZM67.1663 38.7099C67.0201 38.7971 66.0523 37.5772 65.321 36.3263C64.3532 34.6677 63.8927 33.1086 63.6593 31.9946C64.2661 32.4271 65.1748 33.1958 65.9527 34.4032C66.8801 35.8439 67.1757 37.2256 67.2815 38.0098C66.0772 35.8284 65.5357 34.8948 65.5015 34.9135C65.433 34.9508 67.4059 38.5699 67.1694 38.7131L67.1663 38.7099ZM62.7818 38.8655C62.76 39.3043 62.6697 39.6622 62.595 39.9018C60.7808 37.7515 58.9698 35.6043 57.1555 33.4541C58.8297 35.679 60.5008 37.9071 62.1749 40.1321C61.4032 40.076 60.7777 39.8862 60.2923 39.6715C56.5736 38.0316 56.0633 32.7757 56.0197 32.2435C56.9595 32.396 58.7208 32.8317 60.3047 34.2351C60.9302 34.789 62.8938 36.5285 62.7786 38.8655H62.7818ZM65.3833 53.5565C65.2619 53.8335 65.1312 54.0513 65.0347 54.1945C63.0276 49.4333 62.0007 47.0621 61.9602 47.0777C61.9198 47.0964 62.8658 49.5205 64.8076 54.3532C64.5804 54.3998 64.2474 54.4403 63.8616 54.3656C62.2808 54.0669 61.509 52.1749 61.2507 51.5432C60.2767 49.1564 61.1263 46.8101 61.4437 46.0414C62.0878 46.2282 63.9238 46.8567 65.0161 48.6585C65.9092 50.1304 66.0523 52.0473 65.3833 53.5565ZM53.5178 43.6702C53.3373 45.4346 53.244 47.3484 53.2844 49.3929C53.2969 50.0433 53.3218 50.6781 53.3591 51.2942C51.3364 48.8203 51.0906 46.9999 51.268 45.7707C51.5605 43.7511 53.3062 41.1745 53.3062 41.1714C53.3062 41.1714 55.1546 43.3621 55.7054 44.9367C56.1504 46.2095 56.1318 48.1855 54.1277 51.2724C53.9255 48.7363 53.7201 46.2033 53.5178 43.6671V43.6702ZM49.3666 57.3716C48.7131 57.4961 48.9372 57.2347 48.766 56.88C48.0721 55.461 47.5649 53.9331 46.5348 52.6946C46.1645 52.8875 46.6064 53.2889 46.6998 53.513C46.9581 54.1229 48.7411 57.2596 48.3833 57.6175C47.3221 57.3374 46.6375 56.8489 46.2299 56.4817C44.453 54.8822 43.9707 52.0037 44.87 49.1097C45.5826 49.4925 47.0141 50.3856 48.097 52.1157C49.5004 54.3625 49.4289 56.5937 49.3697 57.3716H49.3666ZM38.5125 54.2971C38.1951 54.4061 37.7844 53.9984 37.0966 53.2236C34.825 50.6594 33.9972 49.813 33.8448 49.6512C34.0159 49.8566 35.0055 51.1293 37.9462 54.9444C37.2771 54.8728 35.8457 54.6177 34.5263 53.5285C32.1488 51.565 32.1644 48.5651 32.1737 48.145C32.7961 48.1855 37.7719 48.5776 38.7801 51.4125C39.1629 52.4829 39.054 54.1136 38.5156 54.3003L38.5125 54.2971ZM35.7212 62.5746C33.2628 63.4926 31.0068 61.7127 29.6562 59.8393C30.3719 59.8829 31.0815 60.1101 31.7598 60.3217C32.2857 60.4835 35.9017 61.89 36.0635 62.0581C36.4338 62.4439 35.9795 62.4782 35.7243 62.5746H35.7212ZM35.9639 61.7873L30.151 59.3477C31.5544 59.1298 32.9734 58.8747 34.3364 59.469C35.2638 59.8736 35.3696 60.5022 35.911 61.2303C35.939 61.2708 37.0157 61.6349 35.9608 61.7873H35.9639ZM40.7468 65.2602L43.451 69.9404C42.1378 68.7641 41.1825 66.9499 40.7468 65.2602ZM30.011 70.9393C30.3626 71.0451 32.4973 72.0346 32.6094 72.1622C32.9859 72.601 32.488 72.5699 32.2671 72.6726C29.4291 73.9858 26.2643 72.7099 24.4843 70.3138C27.4562 68.3564 32.1644 67.6687 33.5958 71.6643C30.7391 71.098 28.2746 69.7288 25.2219 70.1893L30.011 70.9393ZM34.3924 82.0143C33.6207 82.8047 32.7556 83.0785 31.5544 83.4551C30.764 83.704 29.6469 83.9716 28.2621 84.0308C28.3648 83.5982 29.1303 80.5455 32.0306 79.1981C33.4838 78.5228 34.8468 78.5695 35.55 78.6504C34.993 79.1141 34.2026 79.752 33.2317 80.4833C31.7132 81.6284 30.4871 82.4437 30.5307 82.5153C30.5587 82.5589 31.0379 82.2975 31.2059 82.2072C32.0243 81.7653 33.5149 80.8629 35.6963 79.058C35.6216 79.7707 35.3633 81.0185 34.3924 82.0143ZM44.7984 83.4831C43.6315 86.3366 41.2634 87.2889 38.2791 87.1862C38.7864 84.0774 41.5341 80.9812 44.9291 81.2768C45.0754 81.9147 44.7424 81.7062 44.4655 81.9116C42.5828 83.3026 40.5694 84.538 39.0197 86.3273C39.7168 86.5265 40.3485 85.4 40.8744 84.9799C41.5435 84.4415 44.1854 82.3815 44.8078 82.257C45.5515 82.1108 44.9354 83.1563 44.8015 83.4831H44.7984ZM57.3143 88.851C55.5032 91.493 53.496 91.8228 50.3531 91.6205C50.9941 89.0439 53.3342 85.7672 56.1691 85.4778C56.5176 85.4404 58.114 85.5898 58.2354 85.7112C58.3474 85.8232 58.3785 85.9041 58.3661 85.9694C58.3256 86.153 57.9926 86.2371 57.9211 86.2557C56.9782 86.5171 52.9577 89.6383 52.3446 90.1144C52.4536 90.0335 52.6558 89.8841 52.8145 89.7721C54.5261 88.574 56.3309 86.875 58.4812 86.6945C58.5746 86.7754 57.4636 88.6301 57.3143 88.851ZM85.0936 85.5805C85.187 85.0359 87.4991 84.6998 89.4191 85.4467C91.6565 86.318 92.5496 88.3469 92.727 88.7732C92.1886 89.1311 91.2053 89.6539 89.9357 89.6632C87.8414 89.6756 85.8529 88.2722 84.7669 86.097C85.6351 86.3989 86.4037 86.6665 87.0883 86.9061C85.9401 86.4331 85.0345 85.9445 85.0968 85.5836L85.0936 85.5805ZM105.296 88.1695C102.76 87.9984 99.517 87.2111 99.1374 84.2299C99.4735 83.8876 104.848 87.4258 105.296 88.1695ZM105.047 87.432L99.1374 83.4924C101.916 83.3462 104.25 84.7247 105.047 87.432ZM108.252 77.5799C108.921 77.8258 109.531 77.219 109.995 77.2034C113.757 77.0945 114.855 80.9843 116.134 83.7351C112.739 83.315 108.099 82.7394 108.255 78.3143L113.919 81.395C112.344 79.7053 110.013 79.0207 108.252 77.5768V77.5799ZM111.211 72.4018C111.317 72.1124 112.098 70.0711 114.304 69.2775C116.971 68.3191 119.221 70.0835 119.339 70.1831C118.017 70.5596 116.685 70.9299 115.335 71.2971C113.95 71.6768 112.574 72.044 111.208 72.4018H111.211ZM119.221 70.9299C116.956 74.9629 114.043 73.9048 114.043 73.9048C113.085 73.6497 111.952 72.7255 111.952 72.7255C111.952 72.7255 114.843 71.8292 119.339 70.4351C119.395 70.681 119.321 70.7557 119.221 70.9299Z" fill="#0D2E24"/>
<path d="M91.1243 88.2971C91.3811 88.3848 91.5032 88.4224 91.5032 88.4192C91.5032 88.4161 91.3654 88.3723 91.1243 88.2971Z" fill="#0D2E24"/>
<path d="M52.3466 90.1144C52.2956 90.1527 52.2637 90.175 52.2669 90.175C52.27 90.175 52.2956 90.1527 52.3466 90.1144Z" fill="#0D2E24"/>
<path d="M66.2359 63.1752C66.2359 62.6213 65.7878 62.1763 65.237 62.1763C64.6862 62.1763 64.2381 62.6244 64.2381 63.1752C64.2381 63.726 64.6862 64.1741 65.237 64.1741C65.7878 64.1741 66.2359 63.726 66.2359 63.1752Z" fill="#0D2E24"/>
<path d="M45.984 64.7249C48.0689 64.4013 46.9207 61.6255 45.6044 61.8371C45.483 61.8558 44.2818 62.528 44.2445 62.5933C43.7186 63.4958 45.038 64.8712 45.984 64.7249Z" fill="#0D2E24"/>
<path d="M67.602 33.7217C68.2212 34.9882 68.4048 36.5846 69.3228 37.6644C69.0085 36.3325 68.6818 34.6739 67.602 33.7217Z" fill="#0D2E24"/>
<path d="M98.0856 41.5977C98.8853 41.5977 99.5326 40.9505 99.5326 40.1507C99.5326 39.351 98.8853 38.7037 98.0856 38.7037C97.2858 38.7037 96.6385 39.351 96.6385 40.1507C96.6385 40.9505 97.2858 41.5977 98.0856 41.5977Z" fill="#0D2E24"/>
<path d="M97.9673 79.7364C99.0129 80.7634 101.44 79.5404 100.133 77.9409C98.7702 76.273 96.9497 78.7344 97.9673 79.7364Z" fill="#0D2E24"/>
<path d="M84.4153 69.0192C83.6715 69.7505 84.8198 71.2006 85.6693 71.1197C87.6205 70.9361 87.0759 66.953 84.91 67.9021C83.5844 68.484 85.355 68.3346 85.5137 68.3937C85.7969 68.4995 86.2232 68.8885 86.3228 69.1966C85.6258 69.0721 85.1279 68.3159 84.4121 69.0161L84.4153 69.0192Z" fill="#0D2E24"/>
<path d="M88.554 65.8514C89.1934 65.8514 89.7116 65.3331 89.7116 64.6938C89.7116 64.0545 89.1934 63.5362 88.554 63.5362C87.9147 63.5362 87.3964 64.0545 87.3964 64.6938C87.3964 65.3331 87.9147 65.8514 88.554 65.8514Z" fill="#0D2E24"/>
<path d="M77.6595 59.385C77.0744 58.4452 74.5103 59.0925 75.3598 60.8258C76.2125 62.5591 78.4841 60.7137 77.6595 59.385Z" fill="#0D2E24"/>
<path d="M92.4594 62.2884C92.4594 62.8267 92.895 63.2624 93.4334 63.2624C93.9717 63.2624 94.4074 62.8267 94.4074 62.2884C94.4074 61.75 93.9717 61.3144 93.4334 61.3144C92.895 61.3144 92.4594 61.75 92.4594 62.2884Z" fill="#0D2E24"/>
<path d="M78.3409 66.4831C77.815 64.532 74.8339 65.7207 76.0351 67.4166C76.6668 68.3097 78.6988 67.8056 78.3409 66.4831Z" fill="#0D2E24"/>
</svg>
