<svg width="314" height="278" viewBox="0 0 314 278" fill="none" xmlns="http://www.w3.org/2000/svg">
<g clip-path="url(#clip0_26_716)">
<path d="M10.128 220.693L0 190.073H8.91091L14.6235 209.645H14.7745L20.4871 190.073H28.6385L18.5105 220.688V243.383H10.1327V220.688L10.128 220.693Z" fill="white"/>
<path d="M32.4453 190.073H55.2958V197.686H40.8232V211.777H52.3239V219.395H40.8232V235.769H55.2958V243.387H32.4453V190.073Z" fill="white"/>
<path d="M58.1073 190.073H66.1785L69.9099 231.047H70.0608L74.0233 190.073H83.1607L87.1232 231.047H87.2741L91.0055 190.073H98.2418L92.8358 243.387H82.4012L78.5943 207.437H78.4434L74.6366 243.387H63.518L58.112 190.073H58.1073Z" fill="white"/>
<path d="M121.243 197.691H112.483V190.078H138.376V197.691H129.616V243.387H121.238V197.691H121.243Z" fill="white"/>
<path d="M142.414 190.073H154.83C163.515 190.073 167.246 194.111 167.246 202.333V205.607C167.246 211.088 165.496 214.593 161.764 216.117V216.268C165.953 217.565 167.326 221.523 167.326 227.542V236.91C167.326 239.5 167.402 241.406 168.241 243.383H159.712C159.255 242.01 158.953 241.175 158.953 236.835V227.084C158.953 222.131 157.505 220.537 153.698 220.537H150.802V243.387H142.424V190.073H142.414ZM153.839 212.923C156.962 212.923 158.868 211.55 158.868 207.286V203.173C158.868 199.366 157.576 197.691 154.604 197.691H150.797V212.923H153.844H153.839Z" fill="white"/>
<path d="M173.109 190.073H195.96V197.686H181.487V211.777H192.988V219.395H181.487V235.769H195.96V243.387H173.109V190.073Z" fill="white"/>
<path d="M200.753 190.073H223.603V197.686H209.13V211.777H220.631V219.395H209.13V235.769H223.603V243.387H200.753V190.073Z" fill="white"/>
<path d="M240.585 190.073H248.963V243.387H240.585V190.073Z" fill="white"/>
<path d="M255.209 190.073H265.719L273.87 221.985H274.021V190.073H281.484V243.387H272.88L262.827 204.47H262.676V243.387H255.213V190.073H255.209Z" fill="white"/>
<path d="M287.725 190.073H298.235L306.386 221.985H306.537V190.073H314V243.387H305.396L295.343 204.47H295.192V243.387H287.73V190.073H287.725Z" fill="white"/>
<path d="M45.5405 274.045V262.072H50.5313C51.7767 262.072 52.7437 262.346 53.4277 262.898C54.1117 263.45 54.4561 264.214 54.4561 265.2C54.4561 265.926 54.2391 266.535 53.8098 267.035C53.3806 267.535 52.7956 267.865 52.0597 268.035V267.78C52.6164 267.86 53.0928 268.025 53.4938 268.28C53.8947 268.535 54.2061 268.87 54.4184 269.28C54.6306 269.691 54.7391 270.177 54.7391 270.733C54.7391 271.436 54.5788 272.035 54.2627 272.535C53.9466 273.035 53.4891 273.408 52.8853 273.663C52.2862 273.917 51.5644 274.045 50.7295 274.045H45.531H45.5405ZM47.2387 267.304H50.2625C51.0785 267.304 51.6965 267.139 52.1116 266.813C52.5315 266.483 52.739 266.002 52.739 265.37C52.739 264.738 52.5315 264.256 52.1116 263.926C51.6918 263.596 51.0738 263.436 50.2625 263.436H47.2387V267.308V267.304ZM47.2387 272.686H50.5313C50.871 272.686 51.1729 272.663 51.4418 272.611C51.7059 272.559 51.9418 272.479 52.1399 272.375C52.338 272.266 52.5032 272.129 52.64 271.969C52.7768 271.804 52.8758 271.615 52.9371 271.398C52.9985 271.181 53.0315 270.941 53.0315 270.667C53.0315 270.394 52.9985 270.153 52.9371 269.936C52.8758 269.719 52.7768 269.535 52.64 269.375C52.5032 269.219 52.338 269.082 52.1399 268.974C51.9418 268.865 51.7107 268.785 51.4418 268.738C51.1776 268.686 50.871 268.662 50.5313 268.662H47.2387V272.686Z" fill="white"/>
<path d="M59.2111 274.045L64.5416 262.072H66.004L71.3533 274.045H69.5514L68.089 270.648L68.8862 271.125H61.6499L62.433 270.648L60.9895 274.045H59.2064H59.2111ZM65.2586 264.025L62.6924 270.106L62.2679 269.7H68.2635L67.872 270.106L65.2917 264.025H65.2586Z" fill="white"/>
<path d="M76.3159 274.045V262.072H81.2738C82.5663 262.072 83.5616 262.379 84.2645 262.987C84.9674 263.601 85.3165 264.464 85.3165 265.587C85.3165 266.313 85.1561 266.936 84.84 267.455C84.524 267.974 84.0617 268.37 83.4579 268.643C82.854 268.917 82.1229 269.049 81.2738 269.049L81.4247 268.813H81.8681C82.321 268.813 82.7125 268.926 83.0475 269.153C83.3824 269.379 83.6843 269.743 83.9579 270.238L86.0288 274.04H84.0947L82.0238 270.219C81.8634 269.927 81.6936 269.695 81.5049 269.53C81.3162 269.365 81.1039 269.252 80.8586 269.191C80.6133 269.129 80.3303 269.096 80.0001 269.096H78.0802V274.04H76.3159V274.045ZM78.0802 267.78H80.986C81.8445 267.78 82.4955 267.601 82.939 267.238C83.3824 266.874 83.5994 266.337 83.5994 265.624C83.5994 264.912 83.3777 264.388 82.939 264.03C82.4955 263.667 81.8445 263.487 80.986 263.487H78.0802V267.785V267.78Z" fill="white"/>
<path d="M99.1569 277.101V262.072H100.874V277.101H99.1569Z" fill="white"/>
<path d="M120.385 274.196C119.172 274.196 118.139 273.946 117.276 273.45C116.417 272.95 115.757 272.243 115.299 271.318C114.842 270.394 114.611 269.304 114.611 268.049C114.611 266.794 114.842 265.705 115.299 264.789C115.757 263.874 116.417 263.167 117.276 262.667C118.134 262.167 119.172 261.921 120.385 261.921C121.201 261.921 121.96 262.049 122.668 262.303C123.375 262.558 123.965 262.921 124.441 263.398L123.828 264.808C123.309 264.346 122.772 264.006 122.224 263.799C121.677 263.591 121.078 263.483 120.432 263.483C119.139 263.483 118.158 263.879 117.479 264.672C116.799 265.464 116.46 266.591 116.46 268.049C116.46 269.507 116.799 270.639 117.479 271.436C118.158 272.233 119.144 272.634 120.432 272.634C121.078 272.634 121.672 272.531 122.224 272.318C122.772 272.111 123.309 271.771 123.828 271.309L124.441 272.719C123.965 273.196 123.375 273.559 122.668 273.814C121.96 274.068 121.201 274.196 120.385 274.196Z" fill="white"/>
<path d="M134.735 274.196C133.14 274.196 131.918 273.776 131.074 272.941C130.23 272.101 129.81 270.865 129.81 269.224V262.072H131.574V269.186C131.574 270.351 131.843 271.224 132.381 271.799C132.918 272.375 133.701 272.667 134.735 272.667C135.768 272.667 136.565 272.379 137.093 271.799C137.626 271.224 137.89 270.351 137.89 269.186V262.072H139.622V269.224C139.622 270.865 139.206 272.106 138.381 272.941C137.555 273.781 136.338 274.196 134.73 274.196H134.735Z" fill="white"/>
<path d="M145.735 274.045V262.072H150.693C151.986 262.072 152.981 262.379 153.684 262.987C154.387 263.601 154.736 264.464 154.736 265.587C154.736 266.313 154.575 266.936 154.259 267.455C153.943 267.974 153.481 268.37 152.877 268.643C152.273 268.917 151.542 269.049 150.693 269.049L150.844 268.813H151.287C151.74 268.813 152.132 268.926 152.467 269.153C152.802 269.379 153.104 269.743 153.377 270.238L155.448 274.04H153.514L151.443 270.219C151.283 269.927 151.113 269.695 150.924 269.53C150.735 269.365 150.523 269.252 150.278 269.191C150.033 269.129 149.75 269.096 149.419 269.096H147.499V274.04H145.735V274.045ZM147.504 267.78H150.41C151.269 267.78 151.919 267.601 152.363 267.238C152.806 266.874 153.023 266.337 153.023 265.624C153.023 264.912 152.802 264.388 152.363 264.03C151.919 263.667 151.269 263.487 150.41 263.487H147.504V267.785V267.78Z" fill="white"/>
<path d="M160.632 274.045V262.072H165.59C166.883 262.072 167.878 262.379 168.581 262.987C169.284 263.601 169.633 264.464 169.633 265.587C169.633 266.313 169.472 266.936 169.156 267.455C168.84 267.974 168.378 268.37 167.774 268.643C167.17 268.917 166.439 269.049 165.59 269.049L165.741 268.813H166.185C166.637 268.813 167.029 268.926 167.364 269.153C167.699 269.379 168.001 269.743 168.274 270.238L170.345 274.04H168.411L166.34 270.219C166.18 269.927 166.01 269.695 165.821 269.53C165.633 269.365 165.42 269.252 165.175 269.191C164.93 269.129 164.647 269.096 164.316 269.096H162.397V274.04H160.632V274.045ZM162.397 267.78H165.302C166.161 267.78 166.812 267.601 167.255 267.238C167.699 266.874 167.916 266.337 167.916 265.624C167.916 264.912 167.694 264.388 167.255 264.03C166.812 263.667 166.161 263.487 165.302 263.487H162.397V267.785V267.78Z" fill="white"/>
<path d="M178.275 274.044V267.865L178.666 268.987L173.69 262.077H175.728L179.398 267.19H178.992L182.662 262.077H184.615L179.671 268.987L180.03 267.865V274.044H178.28H178.275Z" fill="white"/>
<path d="M197.04 277.101V262.072H198.757V277.101H197.04Z" fill="white"/>
<path d="M218.504 274.196C217.202 274.196 216.103 273.95 215.211 273.455C214.315 272.964 213.64 272.257 213.183 271.342C212.725 270.426 212.494 269.332 212.494 268.063C212.494 266.794 212.73 265.704 213.197 264.785C213.669 263.869 214.338 263.162 215.216 262.662C216.093 262.162 217.15 261.917 218.381 261.917C218.947 261.917 219.485 261.968 219.994 262.077C220.504 262.185 220.976 262.346 221.414 262.563C221.853 262.78 222.23 263.044 222.561 263.36L221.933 264.737C221.4 264.285 220.848 263.959 220.277 263.761C219.707 263.563 219.074 263.464 218.386 263.464C217.06 263.464 216.055 263.865 215.362 264.662C214.673 265.459 214.324 266.596 214.324 268.068C214.324 269.54 214.683 270.719 215.395 271.497C216.107 272.28 217.169 272.667 218.57 272.667C219.079 272.667 219.579 272.62 220.075 272.521C220.57 272.422 221.042 272.285 221.494 272.106L221.136 272.988V269.03H218.216V267.705H222.612V273.342C222.282 273.512 221.891 273.658 221.433 273.785C220.976 273.908 220.494 274.007 219.99 274.082C219.485 274.158 218.99 274.191 218.504 274.191V274.196Z" fill="white"/>
<path d="M228.712 274.045V262.072H233.67C234.962 262.072 235.958 262.379 236.66 262.987C237.363 263.601 237.712 264.464 237.712 265.587C237.712 266.313 237.552 266.936 237.236 267.455C236.92 267.974 236.458 268.37 235.854 268.643C235.25 268.917 234.519 269.049 233.67 269.049L233.821 268.813H234.264C234.717 268.813 235.108 268.926 235.443 269.153C235.778 269.379 236.08 269.743 236.354 270.238L238.425 274.04H236.491L234.42 270.219C234.259 269.927 234.09 269.695 233.901 269.53C233.712 269.365 233.5 269.252 233.255 269.191C233.009 269.129 232.726 269.096 232.396 269.096H230.476V274.04H228.712V274.045ZM230.476 267.78H233.382C234.24 267.78 234.891 267.601 235.335 267.238C235.778 266.874 235.995 266.337 235.995 265.624C235.995 264.912 235.774 264.388 235.335 264.03C234.891 263.667 234.24 263.487 233.382 263.487H230.476V267.785V267.78Z" fill="white"/>
<path d="M243.604 274.045V262.072H245.369V274.045H243.604Z" fill="white"/>
<path d="M251.534 274.045V262.072H253.298V272.535H259.223V274.045H251.529H251.534Z" fill="white"/>
<path d="M264.308 274.045V262.072H266.073V272.535H271.997V274.045H264.304H264.308Z" fill="white"/>
<path d="M148.169 107.54C148.169 106.587 147.396 105.813 146.443 105.813C145.49 105.813 144.716 106.587 144.716 107.54C144.716 108.492 145.49 109.266 146.443 109.266C147.396 109.266 148.169 108.492 148.169 107.54Z" fill="white"/>
<path d="M139.598 96.3313C138.008 96.8879 138.527 99.9164 140.659 100.039C143.999 100.237 143.282 95.0387 139.598 96.3313Z" fill="white"/>
<path d="M131.192 100.318C132.267 102.035 135.853 99.2845 133.131 97.4164C131.447 96.2607 130.513 99.2373 131.192 100.318Z" fill="white"/>
<path d="M121.29 45.6017C121.116 45.3942 119.762 44.3658 119.55 44.5262C119.215 45.2809 118.163 46.0121 118.05 46.7952C117.465 50.8615 124.432 49.3189 121.29 45.6017Z" fill="white"/>
<path d="M132.418 91.8075C133.923 92.784 134.522 91.6849 135.239 90.4773H133.749L134.867 89.9112C133.206 86.661 129.918 90.1848 132.418 91.8075Z" fill="white"/>
<path d="M140.659 77.2546C144.707 77.4386 141.971 72.0326 139.82 73.9431C139.06 74.6177 138.81 77.1697 140.659 77.2546Z" fill="white"/>
<path d="M110.294 56.0033C111.498 56.0033 112.474 55.0275 112.474 53.8239C112.474 52.6203 111.498 51.6445 110.294 51.6445C109.091 51.6445 108.115 52.6203 108.115 53.8239C108.115 55.0275 109.091 56.0033 110.294 56.0033Z" fill="white"/>
<path d="M124.588 92.1752C125.622 92.1752 126.46 91.3367 126.46 90.3024C126.46 89.2681 125.622 88.4297 124.588 88.4297C123.553 88.4297 122.715 89.2681 122.715 90.3024C122.715 91.3367 123.553 92.1752 124.588 92.1752Z" fill="white"/>
<path d="M105.266 88.8921C103.94 87.5241 101.888 90.2554 103.898 91.9395C106.153 93.8311 106.186 89.8403 105.266 88.8921Z" fill="white"/>
<path d="M180.846 118.62C183.03 119.516 185.789 120.37 186.964 120.729C186.087 120.436 184.153 119.766 180.846 118.62Z" fill="white"/>
<path d="M232.726 92.1612C227.325 90.4347 221.235 88.2883 217.041 93.4632C215.343 95.5577 216.513 95.8548 213.385 96.9021C208.583 98.5059 204.852 99.1522 199.682 98.5012C196.37 98.0861 196.191 97.9304 196.177 97.8125C196.12 97.3832 197.71 97.0766 200.05 96.0199C204.187 94.1472 204.111 92.8877 207.064 92.0669C209.357 91.43 209.81 92.0103 212.183 91.2083C218.546 89.062 219.056 83.623 220.41 77.9623C219.141 77.7972 215.867 77.5566 212.381 79.3491C210.819 80.1511 207.583 81.8163 206.668 84.9532C206.187 86.5996 206.385 87.8732 205.413 90.0196C205.111 90.68 204.626 91.3687 203.776 92.1471C199.871 95.7275 193.403 97.3172 188.29 98.1333C191.625 95.5671 194.526 92.5197 197.035 89.1422C199.045 86.4345 205.47 74.9055 207.98 74.3111C209.315 73.995 211.159 74.1035 212.654 73.7545C217.966 72.5138 221.131 67.2116 220.787 61.9047C219.532 61.7396 217.499 61.6264 215.126 62.2396C213.796 62.584 211.678 63.1312 209.98 64.7303C207.012 67.5277 208.607 69.424 206.168 73.6177C205.324 75.0659 202.819 77.5849 201.583 79.1274C201.427 79.3255 201.224 80.4577 200.621 79.8303C200.569 79.7737 201.182 78.7925 201.272 78.4293C201.743 76.4433 202.215 71.6034 203.064 70.1363C203.47 69.4382 205.409 68.4522 206.093 67.7494C210.286 63.4142 209.654 57.1921 208.088 51.8239C205.097 53.0315 201.3 56.6355 200.064 59.6687C197.663 65.5606 200.875 67.6692 200.616 72.9242C199.573 93.8642 182.086 95.1095 170.539 107.459C169.534 108.535 168.345 110.238 167.449 111.464C165.137 114.62 163.331 118.134 161.033 121.295C160.859 119.701 160.713 117.285 161.033 114.389C161.92 106.37 165.727 100.553 169.916 94.3029C174.68 87.1939 175.044 88.8403 177.846 83.7645C180.256 79.3963 181.695 75.4951 184.841 74.6838C187.667 73.9573 190.186 76.4999 190.908 70.8675C189.436 70.9713 187.233 70.5467 185.936 71.3062C185.162 71.7638 183.95 74.4385 182.502 74.9715C182.091 72.9572 181.898 70.1882 183.332 67.8107C184.469 65.9238 186.044 65.2587 187.106 64.4662C189.37 62.7727 191.464 58.8904 190.535 49.2058C185.12 51.2106 179.157 55.225 179.709 61.7113C179.874 63.6689 180.945 65.8059 181.157 67.7305C181.813 73.5941 179.138 78.9387 175.595 83.3824C174.907 83.9154 175.294 82.6559 175.331 82.3729C175.482 81.2407 175.43 79.3586 175.657 78.5897C175.812 78.066 177.214 77.3679 177.761 76.2216C179.11 73.3959 178.648 70.9194 176.346 68.8013C175.459 67.9852 172.808 66.0983 171.845 66.9097C169.001 69.3108 168.383 75.047 171.105 77.7736C172.435 79.1085 173.468 78.9765 173.878 79.5378C174.605 80.5379 173.709 82.8069 173.534 83.189C170.873 89.1327 165.345 95.5388 161.764 102.501C161.222 103.553 160.835 104.412 160.642 104.846C160.123 105.903 159.467 107.063 159.09 106.959C158.231 106.723 160.694 100.421 160.288 92.6943C159.774 82.9059 156.939 78.5661 158.109 73.3676C158.373 72.2025 159.571 71.5326 160.642 71.2307C160.415 70.1552 159.179 71.4571 158.783 71.6081C158.439 71.1458 160.382 67.3861 160.991 66.9097C162.062 66.07 162.722 66.5842 163.732 66.2917C169.836 64.5322 170.954 59.414 171.1 53.6825C165.142 55.0364 158.33 58.4375 160.212 65.7493L157.283 69.7448V62.834C157.283 61.7726 158.807 57.1167 159.345 55.9326C159.731 55.0788 162.052 51.2484 162.618 50.805C163.137 50.3993 164.161 49.6634 171.006 48.5407C175.459 47.8095 177.119 47.7718 179.185 46.4085C180.516 45.5311 181.402 44.5027 181.94 43.7857C183.789 41.6157 184.256 38.4552 184.926 35.7522C183.676 35.5399 180.921 35.2521 177.879 36.5305C176.883 36.9504 173.001 38.5825 171.741 42.1771C170.878 44.6395 171.892 45.682 170.77 47.1821C170.312 47.7906 166.269 48.7388 165.307 48.8237C163.765 48.9652 166.35 47.7812 166.633 47.5265C170.661 43.9178 172.392 38.8703 171.85 33.5115C168.114 34.8087 164.854 37.6061 163.453 41.3563C162.458 44.0168 162.647 46.8189 161.67 49.286C161.085 50.7625 159.609 52.1069 159.146 53.6731C158.17 53.6212 159.137 52.2437 159.151 51.9937C159.288 49.7106 159.151 47.2104 159.151 44.8989C159.151 42.9979 160.029 43.2573 160.953 41.8469C164.581 36.3182 164.137 30.2094 159.712 25.2846C158.755 24.2232 157.679 22.5344 156.533 23.6099C151.721 28.1291 151.085 36.0588 154.726 41.4742C155.439 42.5356 156.906 43.3422 157.203 44.6018C158.175 48.7341 157.283 52.9136 156.906 57.0365C151.655 50.2766 153.929 40.2477 147.202 34.4361L143.094 31.6387C143.358 33.285 143.754 35.0776 144.353 36.9739C146.179 42.7526 149.099 47.0642 151.49 49.9417C150.434 49.22 146.49 48.3756 145.9 47.6868C145.169 46.8377 145.372 43.229 144.688 41.427C142.744 36.2994 137.395 35.5965 132.631 34.6247C132.579 39.0307 135.301 45.7905 139.263 47.9699C144.037 50.5974 150.948 48.0784 153.613 54.5363C156.472 61.4565 154.373 69.4665 154.25 76.6461C154.236 77.5566 154.547 78.2217 154.66 79.0708C154.108 79.7359 149.089 72.3676 148.853 71.6128C148.278 69.7731 149.674 68.4947 150.08 66.8295C150.783 63.9473 149.353 60.315 147.014 58.145C144.896 56.1826 141.358 55.0458 141.353 55.0458C141.353 55.0458 140.386 57.8007 140.117 58.7347C139.065 62.4047 140.291 67.6928 143.556 70.1882C144.858 71.1835 145.094 70.4901 146.702 71.7072C147.094 72.0043 151.839 78.8161 152.349 79.6888C153.566 81.7691 155.028 85.4674 155.028 87.8402V102.218L152.736 96.8549C149.754 90.4913 142.697 87.9204 138.211 82.6182C135.315 79.1935 132.484 72.6648 131.668 68.2494C131.503 67.3578 131.527 66.5984 131.673 65.9285C132.536 62.0273 134.871 61.282 135.518 58.612C136.721 53.6589 129.635 47.0925 129.635 47.0878C129.635 47.0878 125.192 53.0551 125.074 57.2487C125.012 59.3574 126.078 61.1594 128.206 64.7681C129.135 66.3484 129.253 66.0417 129.918 67.3767C131.612 70.759 131.498 72.5563 133.357 77.7594C134.211 80.1605 135.065 82.0333 135.603 83.1654C132.296 83.0663 124.828 78.4104 124.503 75.0894C124.427 74.3252 125.041 73.3299 125.102 72.4855C125.21 70.9996 125.234 69.8344 124.951 68.6504C124.951 68.6504 124.682 67.5654 124.097 66.4757C122.838 64.1218 118.394 58.546 115.894 59.5744C113.601 60.5178 113.658 66.7069 115.37 70.7071C115.733 71.5515 116.271 72.5846 117.281 73.6648C119.012 75.5281 121.79 75.4621 123.106 76.4291C124.177 77.2122 125.847 79.9011 127.413 81.0851C130.546 83.4579 135.079 84.6749 138.556 86.7505C143.914 89.9441 148.188 94.1519 150.868 99.8409C154.373 107.285 154.023 115.172 154.269 123.14L150.528 117.361C138.914 105.365 122.498 105.2 113.497 89.7743C110.997 85.491 108.615 76.2688 108.771 71.3958C108.794 70.6175 109.346 69.9335 109.426 69.141C110.294 60.5225 102.827 57.9092 95.6331 58.3432C97.1238 67.0229 99.7655 69.792 102.044 70.6128C103.256 71.0515 105.36 71.2873 106.799 73.1129C107.587 74.1082 107.813 75.1272 108.181 76.8443C108.497 78.3255 108.818 80.486 108.714 83.1796C107.615 83.0569 106.219 82.6842 105.436 81.5993C105.214 81.2926 105.124 79.6746 104.874 78.9859C102.874 73.4337 96.2086 74.5941 91.9112 76.6367C93.8641 79.7407 96.1898 83.3965 100.308 83.5758C103.261 83.7032 104.058 81.7078 107.035 83.9296C109.45 85.7316 113.507 94.8548 116.403 98.0908C117.441 99.2466 118.899 99.4352 119.172 100.732C116.894 99.0579 114.365 99.8975 111.898 99.6051C110.011 99.3833 101.921 97.303 101.063 95.8737C100.119 94.2934 100.931 92.883 98.4446 91.0244C93.1471 87.0666 88.7554 90.4772 83.6937 92.5245C85.5853 96.6237 90.9961 100.685 95.7463 99.8975C97.2276 99.6522 99.289 97.921 99.9353 97.8927C102.053 97.8031 107.714 101.61 110.587 100.737L106.101 102.78C105.431 103.237 104.7 103.7 103.921 104.157C103.261 104.544 102.619 104.893 101.997 105.214C95.586 104.454 91.5951 109.261 90.0479 114.927C98.9965 114.861 102.011 112.757 102.987 110.681C103.794 108.969 102.997 107.752 104.313 105.667C106.398 102.365 110.761 101.619 111.554 101.52C117.955 100.714 120.55 103.652 126.182 105.874C127.956 106.572 130.234 106.903 131.881 107.648C132.348 107.856 132.522 108.308 131.697 108.209C129.876 107.992 127.984 107.318 126.107 107.455C125.446 107.502 125.8 107.521 119.347 108.922C118.342 109.139 117.899 109.233 117.304 109.332C114.615 109.79 113.766 109.601 112.634 109.799C108.228 110.573 105.898 116.125 105.615 116.795C104.931 118.422 104.553 119.323 104.992 119.955C106.308 121.861 114.441 120.611 116.634 116.314C117.62 114.375 117.399 112.247 119.319 110.441C119.79 109.997 120.422 109.648 121.323 109.422C128.762 107.577 138.282 111.507 143.829 116.422C142.188 115.644 140.131 116.45 138.834 116.318C138.225 116.257 137.565 115.578 136.824 115.403C129.871 113.766 124.724 120.682 123.663 126.88C128.8 128.371 131.569 127.461 133.121 126.442C136.805 124.026 136.419 119.191 139.919 117.946C142.575 117.002 145.518 118.762 146.08 119.224C154.306 126.017 152.811 141.806 150.193 150.981C149.334 153.995 148.99 156.995 146.665 159.406C143.933 162.241 140.457 162.798 135.513 163.467C115.771 166.137 99.105 167.01 97.6521 167.09C96.9634 167.128 95.0057 167.236 95.0057 167.255C95.0057 167.255 95.0906 167.255 95.1284 167.255C96.0954 167.236 97.0625 167.26 98.0295 167.255C99.8739 167.236 142.414 167.255 157.868 167.255C207.663 167.27 209.848 167.213 215.758 167.255C216.721 167.265 221.183 167.298 221.188 167.255C221.188 167.213 217.131 167.123 215.73 167.09C196.804 166.633 185.808 164.93 178.765 163.482C172.666 162.231 170.373 161.392 168.336 159.467C165.26 156.571 164 152.151 162.991 146.014C161.255 135.47 160.637 116.507 175.709 116.785C178.633 124.404 184.497 125.795 191.644 122.399C189.044 117.785 186.063 114.375 180.27 114.554C178.666 114.606 177.086 115.45 175.756 115.663C173.265 116.054 170.421 115.597 168.123 117.177C168.241 116.908 168.43 116.516 168.685 116.059C170.855 112.214 174.487 110.563 175.879 109.818C179.133 108.073 182.303 108.11 183.978 108.129C188.507 108.186 191.615 109.832 194.012 111.106C196.068 112.2 197.243 113.191 197.955 114.582C198.517 115.686 198.399 116.46 198.672 117.059C200.644 121.356 205.861 121.451 209.951 121.281C209.149 118.087 208.055 115.125 205.597 113.521C204.597 112.87 202.809 112.545 201.923 112.323C199.946 111.823 198.866 111.771 197.785 111.573C194.87 111.03 194.186 109.813 191.342 108.507C190.766 108.242 185.068 105.714 178.577 107.247C176.633 107.709 175.11 108.417 174.1 108.964C173.685 108.507 176.449 106.351 176.907 105.988C184.804 99.723 200.125 96.9492 208.465 103.539C210.89 105.454 210.225 106.322 211.154 108.695C213.706 115.191 220.414 115.512 226.386 114.191C224.702 110.724 224.853 106.063 221.282 103.799C218.258 101.879 214.117 102.388 210.98 103.686L204.725 100.006C207.753 100.817 213.735 97.9069 216.103 98.1427C216.791 98.2088 217.523 99.0626 218.282 99.3315C223.15 101.067 226.778 99.7466 230.113 96.0718C230.495 95.6473 232.948 92.4395 232.736 92.1659L232.726 92.1612ZM210.928 82.071C214.121 79.4057 217.688 79.4293 218.537 79.4576C217.499 85.7599 214.343 90.2177 210.791 90.5809C210.102 90.6517 209.187 90.5904 208.069 90.0951C208.083 89.3592 213.385 84.2079 214.239 83.1937C214.353 83.0569 214.895 82.4012 214.843 82.3493C214.739 82.2503 212.541 84.6325 209.272 87.2789C208.333 88.0383 207.541 88.628 207.008 89.0148C207.14 88.1657 207.767 84.7032 210.923 82.071H210.928ZM210.154 67.5324C212.56 64.3954 215.546 63.8907 219.277 63.4001C218.301 68.6504 213.645 72.3298 208.447 72.7308L211.805 69.1834C210.376 69.0325 209.352 71.2637 208.258 71.9855C207.928 70.8628 209.399 68.5089 210.154 67.5324ZM205.267 55.5505C205.545 55.2439 206.97 53.6495 207.324 54.0646C207.687 55.3147 208.159 57.6025 207.621 60.3621C206.748 64.8341 203.805 67.4616 202.842 68.2541C203.465 65.2681 204.092 62.2821 204.715 59.296C203.871 62.2726 202.654 65.1738 202.286 68.2541C199.819 63.7444 202.154 58.9847 205.267 55.5505ZM187.535 71.8109C188.172 71.5987 189.648 71.0279 190.139 71.8015L186.04 73.1082C185.775 72.2308 186.964 71.9996 187.535 71.8109ZM182.105 57.5601C183.888 53.3004 188.242 52.2815 188.653 52.1918C189.884 57.0931 189.011 59.6593 187.922 61.1075C186.648 62.7962 183.558 64.9709 183.558 64.9709C183.558 64.9709 184.888 61.7915 186.299 58.4564C187.474 55.6779 187.799 54.9373 187.747 54.9137C187.658 54.8712 186.521 57.1403 184.431 60.966C183.525 62.6217 182.77 63.9661 182.266 64.8577C182.02 64.3246 180.619 61.1216 182.105 57.5601ZM172.407 68.2588C172.694 69.6174 172.959 71.0656 173.185 72.5987C173.426 74.2215 173.591 75.764 173.709 77.2216C170.614 75.5895 170.402 70.7684 172.407 68.2588ZM173.345 70.4995C173.223 69.7542 173.095 69.0042 172.973 68.2588C176.525 70.3722 177.846 74.6979 174.468 77.5943C174.095 75.231 173.723 72.8629 173.345 70.4995ZM169.232 56.3053C168.237 60.2536 167.321 64.419 162.51 64.8907C162.316 62.1264 167.241 59.9187 168.109 57.9799C168.18 57.8148 168.204 57.3667 167.925 57.428L161.571 63.7727C161.788 59.8244 165.656 57.1638 169.227 56.31L169.232 56.3053ZM176.237 39.6864C178.935 37.2994 182.129 37.4504 182.737 37.4928C182.704 37.8844 182.11 43.7385 177.515 45.8471C176.048 46.5217 174.628 46.6019 173.61 46.5406C174.572 45.0452 175.926 43.2479 177.798 41.4553C179.115 40.1958 180.407 39.2052 181.558 38.4363C180.233 39.1816 178.704 40.1675 177.114 41.4648C175.577 42.7196 174.331 43.9791 173.35 45.0971C173.449 44.38 173.911 41.7525 176.242 39.6864H176.237ZM165.416 41.0732C166.977 37.908 169.548 36.4267 170.463 35.9597C170.51 37.1674 170.44 39.7666 168.982 42.5639C167.708 45.0074 165.972 46.4604 165.01 47.1585C166.052 44.8518 167.095 42.545 168.142 40.2383C167.501 41.427 166.836 42.6299 166.147 43.8423C165.529 44.9367 164.911 46.0122 164.288 47.0642C164.203 46.0028 164.151 43.6394 165.42 41.0732H165.416ZM157.274 42.111C153.377 37.7947 153.368 30.2849 157.099 25.6855C157.302 25.4355 157.387 25.3412 157.458 25.3412C157.646 25.3506 157.802 25.5959 157.844 25.6714C158.297 26.4309 159.429 27.2234 160.203 28.4781C163.472 33.7898 161.222 38.6297 161.222 38.6297C160.863 39.4033 160.076 40.8044 158.392 42.111C158.17 37.6202 157.948 33.1341 157.726 28.6433C157.576 33.1341 157.425 37.6202 157.274 42.111ZM150.646 45.5641C150.424 45.6962 148.957 43.847 147.849 41.9507C146.381 39.4364 145.683 37.073 145.33 35.3842C146.249 36.0399 147.627 37.2051 148.806 39.0354C150.212 41.2195 150.66 43.3139 150.82 44.5027C148.995 41.1959 148.174 39.7807 148.122 39.809C148.018 39.8656 151.009 45.3518 150.651 45.5688L150.646 45.5641ZM143.999 45.7999C143.966 46.4651 143.829 47.0076 143.716 47.3708C140.966 44.1112 138.221 40.8562 135.47 37.5966C138.008 40.9695 140.541 44.347 143.079 47.7199C141.909 47.635 140.961 47.3472 140.225 47.0217C134.588 44.5357 133.815 36.5683 133.749 35.7616C135.173 35.9927 137.843 36.6532 140.244 38.7807C141.192 39.6203 144.169 42.2573 143.995 45.7999H143.999ZM147.943 68.0702C147.759 68.49 147.561 68.8202 147.415 69.0372C144.372 61.8198 142.815 58.2252 142.754 58.2488C142.693 58.2771 144.127 61.9519 147.07 69.2778C146.726 69.3485 146.221 69.4099 145.636 69.2966C143.24 68.8438 142.07 65.9757 141.678 65.0181C140.202 61.3999 141.49 57.8431 141.971 56.678C142.947 56.961 145.73 57.9139 147.386 60.6452C148.74 62.8764 148.957 65.7823 147.943 68.0702ZM129.956 53.0834C129.682 55.7581 129.541 58.6592 129.602 61.7584C129.621 62.7444 129.659 63.7067 129.715 64.6407C126.649 60.8905 126.276 58.1309 126.545 56.2676C126.989 53.206 129.635 49.3002 129.635 49.2954C129.635 49.2954 132.437 52.6164 133.272 55.0033C133.947 56.9327 133.918 59.9282 130.881 64.6077C130.574 60.7631 130.263 56.9233 129.956 53.0787V53.0834ZM123.663 73.8535C122.672 74.0422 123.012 73.646 122.753 73.1082C121.701 70.9571 120.932 68.6409 119.37 66.7635C118.809 67.0559 119.479 67.6645 119.62 68.0041C120.012 68.9287 122.715 73.6837 122.172 74.2262C120.564 73.8016 119.526 73.061 118.908 72.5044C116.215 70.0797 115.483 65.7162 116.847 61.3292C117.927 61.9094 120.097 63.2633 121.738 65.8861C123.866 69.2919 123.757 72.6742 123.668 73.8535H123.663ZM107.209 69.1929C106.728 69.358 106.105 68.74 105.063 67.5654C101.619 63.6784 100.365 62.3953 100.133 62.15C100.393 62.4613 101.893 64.3907 106.351 70.174C105.337 70.0656 103.167 69.6787 101.166 68.0277C97.5625 65.0511 97.5861 60.5037 97.6002 59.8668C98.5437 59.9282 106.087 60.5225 107.615 64.82C108.195 66.4427 108.03 68.9145 107.214 69.1976L107.209 69.1929ZM102.978 81.7408C99.2513 83.1324 95.8312 80.4341 93.784 77.5943C94.8689 77.6604 95.9445 78.0047 96.9728 78.3255C97.77 78.5708 103.252 80.703 103.497 80.9577C104.058 81.5427 103.369 81.5945 102.983 81.7408H102.978ZM103.346 80.5473L94.534 76.849C96.6615 76.5188 98.8126 76.132 100.879 77.033C102.284 77.6462 102.445 78.5991 103.266 79.7029C103.308 79.7643 104.94 80.3162 103.341 80.5473H103.346ZM110.596 85.8118L114.696 92.9065C112.705 91.1234 111.257 88.3733 110.596 85.8118ZM94.3217 94.4208C94.8548 94.5812 98.0908 96.0813 98.2606 96.2747C98.8314 96.9398 98.0767 96.8926 97.7417 97.0483C93.4396 99.039 88.6421 97.1049 85.9439 93.4726C90.4489 90.5055 97.5861 89.4629 99.756 95.5199C95.4256 94.6614 91.6895 92.5858 87.0619 93.2839L94.3217 94.4208ZM100.964 111.21C99.7938 112.408 98.4824 112.823 96.6615 113.394C95.4633 113.771 93.7698 114.177 91.6706 114.266C91.8263 113.611 92.9867 108.983 97.3832 106.94C99.5862 105.917 101.652 105.988 102.718 106.11C101.874 106.813 100.676 107.78 99.2041 108.889C96.9021 110.625 95.0435 111.861 95.1095 111.969C95.152 112.035 95.8784 111.639 96.1332 111.502C97.3738 110.832 99.6334 109.464 102.94 106.728C102.827 107.808 102.435 109.7 100.964 111.21ZM116.738 113.436C114.969 117.762 111.379 119.205 106.855 119.05C107.624 114.337 111.79 109.643 116.936 110.092C117.158 111.059 116.653 110.743 116.233 111.054C113.379 113.162 110.327 115.035 107.978 117.748C109.035 118.05 109.992 116.342 110.79 115.705C111.804 114.889 115.809 111.766 116.752 111.577C117.88 111.356 116.946 112.941 116.743 113.436H116.738ZM135.711 121.573C132.966 125.578 129.923 126.078 125.158 125.772C126.13 121.866 129.678 116.899 133.975 116.46C134.503 116.403 136.923 116.63 137.107 116.814C137.277 116.983 137.324 117.106 137.305 117.205C137.244 117.483 136.739 117.611 136.631 117.639C135.202 118.035 129.107 122.767 128.178 123.489C128.343 123.366 128.649 123.139 128.89 122.97C131.484 121.154 134.22 118.578 137.48 118.304C137.622 118.427 135.937 121.238 135.711 121.573ZM177.822 116.616C177.964 115.79 181.468 115.281 184.379 116.413C187.771 117.734 189.125 120.809 189.393 121.455C188.577 121.998 187.087 122.79 185.162 122.805C181.987 122.823 178.973 120.696 177.327 117.399C178.643 117.856 179.808 118.262 180.846 118.625C179.105 117.908 177.732 117.167 177.827 116.62L177.822 116.616ZM208.447 120.54C204.602 120.281 199.687 119.087 199.111 114.568C199.621 114.049 207.767 119.413 208.447 120.54ZM208.069 119.422L199.111 113.45C203.324 113.229 206.862 115.318 208.069 119.422ZM212.928 104.487C213.942 104.86 214.867 103.94 215.57 103.917C221.273 103.752 222.938 109.648 224.877 113.818C219.73 113.181 212.697 112.309 212.933 105.601L221.518 110.271C219.131 107.709 215.598 106.672 212.928 104.483V104.487ZM217.414 96.6379C217.574 96.1992 218.758 93.1047 222.103 91.9018C226.146 90.4489 229.556 93.1235 229.736 93.2745C227.731 93.8453 225.712 94.4066 223.664 94.9633C221.565 95.5388 219.48 96.0954 217.409 96.6379H217.414ZM229.556 94.4066C226.122 100.52 221.707 98.9163 221.707 98.9163C220.254 98.5295 218.537 97.1285 218.537 97.1285C218.537 97.1285 222.919 95.7699 229.736 93.6566C229.82 94.0293 229.707 94.1425 229.556 94.4066Z" fill="white"/>
<path d="M186.964 120.734C187.351 120.866 187.535 120.923 187.535 120.918C187.535 120.913 187.327 120.847 186.964 120.734Z" fill="white"/>
<path d="M128.178 123.489C128.102 123.545 128.055 123.578 128.06 123.578C128.064 123.578 128.102 123.545 128.178 123.489Z" fill="white"/>
<path d="M149.235 82.6515C149.235 81.8118 148.556 81.1372 147.721 81.1372C146.886 81.1372 146.207 81.8165 146.207 82.6515C146.207 83.4864 146.886 84.1657 147.721 84.1657C148.556 84.1657 149.235 83.4864 149.235 82.6515Z" fill="white"/>
<path d="M118.535 85.0005C121.696 84.5099 119.955 80.3021 117.96 80.6229C117.776 80.6512 115.955 81.6701 115.898 81.7692C115.101 83.1372 117.101 85.2222 118.535 85.0005Z" fill="white"/>
<path d="M151.306 38.0024C152.245 39.9224 152.523 42.3423 153.915 43.9792C153.438 41.9602 152.943 39.4459 151.306 38.0024Z" fill="white"/>
<path d="M197.517 49.9417C198.729 49.9417 199.71 48.9606 199.71 47.7482C199.71 46.5359 198.729 45.5547 197.517 45.5547C196.304 45.5547 195.323 46.5359 195.323 47.7482C195.323 48.9606 196.304 49.9417 197.517 49.9417Z" fill="white"/>
<path d="M197.337 107.757C198.922 109.313 202.602 107.459 200.621 105.035C198.554 102.506 195.795 106.238 197.337 107.757Z" fill="white"/>
<path d="M176.794 91.5105C175.666 92.619 177.407 94.8173 178.695 94.6946C181.652 94.4163 180.827 88.3782 177.544 89.817C175.534 90.6991 178.218 90.4727 178.459 90.5623C178.888 90.7227 179.534 91.3123 179.685 91.7793C178.629 91.5907 177.874 90.4444 176.789 91.5057L176.794 91.5105Z" fill="white"/>
<path d="M183.068 86.7079C184.037 86.7079 184.822 85.9222 184.822 84.9531C184.822 83.9839 184.037 83.1982 183.068 83.1982C182.098 83.1982 181.313 83.9839 181.313 84.9531C181.313 85.9222 182.098 86.7079 183.068 86.7079Z" fill="white"/>
<path d="M166.552 76.9054C165.666 75.4808 161.779 76.462 163.066 79.0895C164.359 81.717 167.803 78.9197 166.552 76.9054Z" fill="white"/>
<path d="M188.988 81.3066C188.988 82.1227 189.648 82.7831 190.464 82.7831C191.28 82.7831 191.941 82.1227 191.941 81.3066C191.941 80.4905 191.28 79.8301 190.464 79.8301C189.648 79.8301 188.988 80.4905 188.988 81.3066Z" fill="white"/>
<path d="M167.586 87.6657C166.788 84.708 162.269 86.51 164.09 89.0809C165.048 90.4348 168.128 89.6706 167.586 87.6657Z" fill="white"/>
<path d="M41.6251 167.194L45.3046 167.227C21.6522 107.818 51.0974 38.7427 109.219 13.6138C196.658 -24.1904 292.055 47.38 277.823 142.093C276.545 150.617 274.243 159.009 271.191 167.043C271.191 167.312 274.583 167.359 274.861 167.18C275.446 166.807 278.503 155.528 278.894 153.934C298.513 73.7448 238.099 -1.63713 155.821 0.0280604C77.3254 1.61306 19.5248 74.2448 36.9409 151.264C38.1674 156.684 39.875 161.939 41.6251 167.198V167.194ZM42.3327 84.3822C42.1488 84.1888 40.8892 84.8822 41.2194 83.6369C43.9555 84.3397 43.2998 85.5191 41.7431 87.1559C41.5638 87.3446 41.5968 88.1324 41.21 87.538C40.9977 85.5945 41.361 86.8493 42.3186 86.0521C40.5354 84.9388 43.0922 85.1841 42.3233 84.3822H42.3327Z" fill="white"/>
</g>
<defs>
<clipPath id="clip0_26_716">
<rect width="314" height="277.102" fill="white"/>
</clipPath>
</defs>
</svg>
